<?xml version="1.0" encoding="utf-8"?>
<!-- Created by UniConvertor 2.0rc5 (https://sk1project.net/) -->
<svg xmlns="http://www.w3.org/2000/svg" height="1080.0px" width="1080.0px" version="1.1" xmlns:xlink="http://www.w3.org/1999/xlink" id="c378b0b4-06a0-11ed-964c-0242ac130003">

<g>
	<g>
		<g>
			<path style="fill:#0d4e65;" d="M 517.0,279.8 C 524.6,279.1 532.2,278.8 540.0,278.8 547.7,278.8 555.4,279.1 563.0,279.8 L 800.2,517.0 816.2,533.0 C 816.0,525.3 815.5,517.7 814.7,510.1 800.8,381.5 698.4,279.1 569.8,265.2 562.3,264.4 554.6,263.9 546.9,263.7 544.6,263.6 542.3,263.6 539.9,263.6 537.6,263.6 535.2,263.6 532.9,263.7 525.2,263.9 517.6,264.4 510.0,265.2 381.4,279.1 279.0,381.5 265.1,510.1 264.3,517.6 263.8,525.3 263.6,533.0 L 279.6,517.0 517.0,279.8 Z M 796.9,492.3 L 587.7,283.1 C 693.6,302.7 777.3,386.4 796.9,492.3 Z M 492.3,283.1 L 283.1,492.3 C 302.7,386.4 386.4,302.7 492.3,283.1 Z" />
			<path style="fill:#0d4e65;" d="M 563.0,800.2 C 555.4,800.9 547.8,801.2 540.0,801.2 532.3,801.2 524.6,800.9 517.0,800.2 L 279.8,563.0 263.8,547.0 C 264.0,554.7 264.5,562.3 265.3,569.9 279.2,698.5 381.6,800.9 510.2,814.8 517.7,815.6 525.4,816.1 533.1,816.3 535.4,816.4 537.7,816.4 540.1,816.4 542.4,816.4 544.8,816.4 547.1,816.3 554.8,816.1 562.4,815.6 570.0,814.8 698.6,800.9 801.0,698.5 814.9,569.9 815.7,562.4 816.2,554.7 816.4,547.0 L 800.4,563.0 563.0,800.2 Z M 283.1,587.7 L 492.2,796.9 C 386.4,777.3 302.7,693.6 283.1,587.7 Z M 587.7,796.9 L 796.9,587.7 C 777.3,693.6 693.6,777.3 587.7,796.9 Z" />
		</g>
		<path style="fill:#0d4e65;" d="M 564.8,532.0 C 573.5,536.7 579.7,542.7 583.4,550.0 587.1,557.3 588.9,569.7 588.9,587.0 588.9,611.3 584.7,628.8 576.2,639.4 567.7,650.0 553.8,655.4 534.3,655.4 516.0,655.4 503.4,650.5 496.5,640.7 489.6,630.9 486.0,615.2 485.8,593.7 L 515.0,593.7 C 515.2,616.9 522.2,628.5 535.8,628.5 543.3,628.5 548.7,625.5 552.0,619.5 555.3,613.5 557.0,603.9 557.0,590.8 557.0,571.2 554.4,558.8 549.3,553.5 544.2,548.2 535.3,545.6 522.7,545.7 L 522.7,518.1 C 536.4,518.1 545.5,515.7 550.0,510.8 554.4,505.9 556.6,496.1 556.6,481.3 556.6,469.0 555.2,460.2 552.5,454.7 549.7,449.2 545.2,446.5 538.9,446.5 531.8,446.5 527.1,449.3 524.5,454.8 522.0,460.3 520.7,469.0 520.6,480.9 L 491.0,480.9 C 491.2,458.1 495.2,442.0 503.0,432.8 510.8,423.5 522.9,418.9 539.3,418.9 556.7,418.9 569.3,423.7 577.0,433.3 584.7,442.9 588.5,458.6 588.5,480.2 588.5,497.6 586.7,509.6 583.1,515.9 579.6,522.5 573.5,527.8 564.8,532.0 Z" />
	</g>
</g>
</svg>