<!-- <?xml version="1.0" encoding="utf-8"?> -->
<!-- Created by UniConvertor 2.0rc5 (https://sk1project.net/) -->
<svg xmlns="http://www.w3.org/2000/svg" height="1080.0px" width="1080.0px" version="1.1" xmlns:xlink="http://www.w3.org/1999/xlink" id="c46047da-06a0-11ed-bfe2-0242ac130003">

<g>
	<g>
		<g>
			<path id="step4" style="fill:#0d4e65;" d="M 517.0,279.8 C 524.6,279.1 532.2,278.8 540.0,278.8 547.7,278.8 555.4,279.1 563.0,279.8 L 800.2,517.0 816.2,533.0 C 816.0,525.3 815.5,517.7 814.7,510.1 800.8,381.5 698.4,279.1 569.8,265.2 562.3,264.4 554.6,263.9 546.9,263.7 544.6,263.6 542.3,263.6 539.9,263.6 537.6,263.6 535.2,263.6 532.9,263.7 525.2,263.9 517.6,264.4 510.0,265.2 381.4,279.1 279.0,381.5 265.1,510.1 264.3,517.6 263.8,525.3 263.6,533.0 L 279.6,517.0 517.0,279.8 Z M 796.9,492.3 L 587.7,283.1 C 693.6,302.7 777.3,386.4 796.9,492.3 Z M 492.3,283.1 L 283.1,492.3 C 302.7,386.4 386.4,302.7 492.3,283.1 Z" />
			<path style="fill:#0d4e65;" d="M 563.0,800.2 C 555.4,800.9 547.8,801.2 540.0,801.2 532.3,801.2 524.6,800.9 517.0,800.2 L 279.8,563.0 263.8,547.0 C 264.0,554.7 264.5,562.3 265.3,569.9 279.2,698.5 381.6,800.9 510.2,814.8 517.7,815.6 525.4,816.1 533.1,816.3 535.4,816.4 537.7,816.4 540.1,816.4 542.4,816.4 544.8,816.4 547.1,816.3 554.8,816.1 562.4,815.6 570.0,814.8 698.6,800.9 801.0,698.5 814.9,569.9 815.7,562.4 816.2,554.7 816.4,547.0 L 800.4,563.0 563.0,800.2 Z M 283.1,587.7 L 492.2,796.9 C 386.4,777.3 302.7,693.6 283.1,587.7 Z M 587.7,796.9 L 796.9,587.7 C 777.3,693.6 693.6,777.3 587.7,796.9 Z" />
		</g>
		<path style="fill:#0d4e65;" d="M 589.6,589.4 L 577.0,589.4 576.6,589.8 576.6,653.3 546.3,653.3 546.3,589.5 485.7,589.5 485.7,560.8 548.1,420.3 576.6,420.3 576.6,561.8 589.6,561.8 589.6,589.4 Z M 546.7,561.8 L 546.7,479.5 546.0,479.8 509.8,561.8 546.7,561.8 Z" />
	</g>
</g>
</svg>