<?xml version="1.0" encoding="utf-8"?>
<!-- Created by UniConvertor 2.0rc5 (https://sk1project.net/) -->
<svg xmlns="http://www.w3.org/2000/svg" height="1080.0px" width="1080.0px" version="1.1" xmlns:xlink="http://www.w3.org/1999/xlink" id="be4f3e14-06a0-11ed-85a4-0242ac130003">

<g>
	<g>
		<g>
			<path style="fill:#0d4e65;" d="M 517.0,279.8 C 524.6,279.1 532.2,278.8 540.0,278.8 547.7,278.8 555.4,279.1 563.0,279.8 L 800.2,517.0 816.2,533.0 C 816.0,525.3 815.5,517.7 814.7,510.1 800.8,381.5 698.4,279.1 569.8,265.2 562.3,264.4 554.6,263.9 546.9,263.7 544.6,263.6 542.3,263.6 539.9,263.6 537.6,263.6 535.2,263.6 532.9,263.7 525.2,263.9 517.6,264.4 510.0,265.2 381.4,279.1 279.0,381.5 265.1,510.1 264.3,517.6 263.8,525.3 263.6,533.0 L 279.6,517.0 517.0,279.8 Z M 796.9,492.3 L 587.7,283.1 C 693.6,302.7 777.3,386.4 796.9,492.3 Z M 492.3,283.1 L 283.1,492.3 C 302.7,386.4 386.4,302.7 492.3,283.1 Z" />
			<path style="fill:#0d4e65;" d="M 563.0,800.2 C 555.4,800.9 547.8,801.2 540.0,801.2 532.3,801.2 524.6,800.9 517.0,800.2 L 279.8,563.0 263.8,547.0 C 264.0,554.7 264.5,562.3 265.3,569.9 279.2,698.5 381.6,800.9 510.2,814.8 517.7,815.6 525.4,816.1 533.1,816.3 535.4,816.4 537.7,816.4 540.1,816.4 542.4,816.4 544.8,816.4 547.1,816.3 554.8,816.1 562.4,815.6 570.0,814.8 698.6,800.9 801.0,698.5 814.9,569.9 815.7,562.4 816.2,554.7 816.4,547.0 L 800.4,563.0 563.0,800.2 Z M 283.1,587.7 L 492.2,796.9 C 386.4,777.3 302.7,693.6 283.1,587.7 Z M 587.7,796.9 L 796.9,587.7 C 777.3,693.6 693.6,777.3 587.7,796.9 Z" />
		</g>
		<path style="fill:#0d4e65;" d="M 587.1,451.6 L 535.0,451.6 527.6,503.7 C 566.9,507.3 586.6,530.4 586.6,573.0 586.6,596.9 580.2,616.7 567.5,632.3 554.8,648.0 538.8,655.8 519.5,655.8 508.2,655.8 495.8,652.0 482.2,644.4 L 491.1,617.4 C 492.1,617.8 493.6,618.5 495.6,619.7 503.3,623.8 510.4,625.8 516.9,625.8 528.6,625.8 537.8,621.3 544.6,612.3 551.3,603.3 554.7,590.9 554.7,575.0 554.7,560.5 551.2,549.4 544.3,541.6 537.4,533.9 527.4,530.0 514.4,530.0 509.8,530.0 503.1,531.0 494.3,532.9 L 511.1,422.9 587.2,422.9 587.2,451.6 587.1,451.6 Z" />
	</g>
</g>
</svg>