<?xml version="1.0" encoding="utf-8"?>
<!-- Created by UniConvertor 2.0rc5 (https://sk1project.net/) -->
<svg xmlns="http://www.w3.org/2000/svg" height="1080.0px" width="1080.0px" version="1.1" xmlns:xlink="http://www.w3.org/1999/xlink" id="bcb110a0-06a0-11ed-8f27-0242ac150003">

<g>
	<g>
		<g>
			<path style="fill:#0d4e65;" d="M 517.0,279.8 C 524.6,279.1 532.2,278.8 540.0,278.8 547.7,278.8 555.4,279.1 563.0,279.8 L 800.2,517.0 816.2,533.0 C 816.0,525.3 815.5,517.7 814.7,510.1 800.8,381.5 698.4,279.1 569.8,265.2 562.3,264.4 554.6,263.9 546.9,263.7 544.6,263.6 542.3,263.6 539.9,263.6 537.6,263.6 535.2,263.6 532.9,263.7 525.2,263.9 517.6,264.4 510.0,265.2 381.4,279.1 279.0,381.5 265.1,510.1 264.3,517.6 263.8,525.3 263.6,533.0 L 279.6,517.0 517.0,279.8 Z M 796.9,492.3 L 587.7,283.1 C 693.6,302.7 777.3,386.4 796.9,492.3 Z M 492.3,283.1 L 283.1,492.3 C 302.7,386.4 386.4,302.7 492.3,283.1 Z" />
			<path style="fill:#0d4e65;" d="M 563.0,800.2 C 555.4,800.9 547.8,801.2 540.0,801.2 532.3,801.2 524.6,800.9 517.0,800.2 L 279.8,563.0 263.8,547.0 C 264.0,554.7 264.5,562.3 265.3,569.9 279.2,698.5 381.6,800.9 510.2,814.8 517.7,815.6 525.4,816.1 533.1,816.3 535.4,816.4 537.7,816.4 540.1,816.4 542.4,816.4 544.8,816.4 547.1,816.3 554.8,816.1 562.4,815.6 570.0,814.8 698.6,800.9 801.0,698.5 814.9,569.9 815.7,562.4 816.2,554.7 816.4,547.0 L 800.4,563.0 563.0,800.2 Z M 283.1,587.7 L 492.2,796.9 C 386.4,777.3 302.7,693.6 283.1,587.7 Z M 587.7,796.9 L 796.9,587.7 C 777.3,693.6 693.6,777.3 587.7,796.9 Z" />
		</g>
		<path style="fill:#0d4e65;" d="M 559.4,528.8 C 570.3,534.3 577.9,541.8 582.0,551.1 586.1,560.4 588.2,573.5 588.2,590.2 588.2,613.2 584.1,629.9 576.0,640.3 567.9,650.7 554.8,655.9 536.8,655.9 503.0,655.9 486.1,633.9 486.1,589.8 486.1,572.1 488.4,558.7 493.1,549.6 497.8,540.5 505.3,533.8 515.6,529.5 506.7,524.9 500.4,519.2 496.8,512.3 493.1,505.4 491.3,494.1 491.3,478.5 491.3,458.1 494.8,443.2 501.8,433.9 508.8,424.6 520.1,419.9 535.6,419.9 552.2,419.9 564.3,424.3 572.0,433.1 579.7,441.9 583.5,455.8 583.5,474.9 583.5,491.6 581.7,503.7 578.0,511.1 574.5,518.6 568.2,524.5 559.4,528.8 Z M 538.3,628.7 C 550.1,628.7 556.0,616.2 556.0,591.3 556.0,574.2 554.7,562.0 552.2,554.8 549.7,547.6 544.8,544.0 537.6,544.0 530.7,544.0 526.0,547.0 523.3,552.9 520.6,558.8 519.2,568.6 519.2,582.2 519.2,599.2 520.5,611.2 523.1,618.2 525.6,625.2 530.7,628.7 538.3,628.7 Z M 536.8,516.9 C 543.3,516.9 547.8,514.0 550.3,508.2 552.8,502.4 554.1,492.9 554.1,479.5 554.1,468.1 552.8,459.8 550.3,454.7 547.8,449.6 543.5,447.0 537.5,447.0 530.9,447.0 526.4,449.5 524.1,454.6 521.8,459.6 520.6,468.2 520.6,480.4 520.6,493.5 521.8,502.8 524.1,508.4 526.4,514.1 530.7,516.9 536.8,516.9 Z" />
	</g>
</g>
</svg>